<?xml version="1.0" encoding="UTF-8" standalone="no"?>
<!DOCTYPE svg PUBLIC "-//W3C//DTD SVG 1.1//EN" "http://www.w3.org/Graphics/SVG/1.1/DTD/svg11.dtd">
<svg version="1.1" xmlns="http://www.w3.org/2000/svg" xmlns:xlink="http://www.w3.org/1999/xlink" preserveAspectRatio="xMidYMid meet" viewBox="0 0 640 640" width="640" height="640"><defs><path d="M129.05 299.86C112.09 236.78 117.27 171.34 140.63 153.68C163.98 136.02 196.67 172.84 213.63 235.9C230.6 299 225.42 364.43 202.06 382.09C178.7 399.76 146.02 362.94 129.05 299.86Z" id="i1L2DlENS"></path><path d="M129.05 299.86C112.09 236.78 117.27 171.34 140.63 153.68C163.98 136.02 196.67 172.84 213.63 235.9C230.6 299 225.42 364.43 202.06 382.09C178.7 399.76 146.02 362.94 129.05 299.86Z" id="a4SPKrKYNP"></path><path d="M529.09 299.86C546.05 236.78 540.87 171.34 517.52 153.68C494.16 136.02 461.47 172.84 444.51 235.9C427.54 299 432.73 364.43 456.08 382.09C479.44 399.76 512.12 362.94 529.09 299.86Z" id="d4Vs1DdmH"></path><path d="M529.09 299.86C546.05 236.78 540.87 171.34 517.52 153.68C494.16 136.02 461.47 172.84 444.51 235.9C427.54 299 432.73 364.43 456.08 382.09C479.44 399.76 512.12 362.94 529.09 299.86Z" id="a1ds6SQYhW"></path><path d="M222.21 142.22C213.52 74.59 226.77 12.42 251.82 3.38C276.86 -5.68 304.22 41.81 312.91 109.45C321.61 177.08 308.35 239.24 283.31 248.3C258.26 257.34 230.91 209.85 222.21 142.22Z" id="a5tJbF374A"></path><path d="M222.21 142.22C213.52 74.59 226.77 12.42 251.82 3.38C276.86 -5.68 304.22 41.81 312.91 109.45C321.61 177.08 308.35 239.24 283.31 248.3C258.26 257.34 230.91 209.85 222.21 142.22Z" id="f1boadJVtD"></path><path d="M435.3 142.28C444 74.65 430.75 12.48 405.7 3.43C380.65 -5.62 353.3 41.87 344.61 109.51C335.92 177.14 349.17 239.31 374.21 248.35C399.26 257.41 426.61 209.91 435.3 142.28Z" id="b1RCG7WC2u"></path><path d="M435.3 142.28C444 74.65 430.75 12.48 405.7 3.43C380.65 -5.62 353.3 41.87 344.61 109.51C335.92 177.14 349.17 239.31 374.21 248.35C399.26 257.41 426.61 209.91 435.3 142.28Z" id="b3ExzCzeE"></path><path d="M187.74 548.29C191.81 615.51 232.94 644.28 260.01 641.73C287.08 639.19 338.13 630.83 374.58 639.3C411.02 647.77 457.01 641.35 467.79 576.99C478.56 512.64 454.47 471.63 435.67 448.37C416.87 425.11 385.48 355.55 375.81 323.62C366.14 291.69 316.92 233.23 281.56 335.54C275.45 353.24 247.12 411.83 227.53 431.82C207.94 451.81 183.66 481.08 187.74 548.29Z" id="c5L93abwJq"></path><path d="M187.74 548.29C191.81 615.51 232.94 644.28 260.01 641.73C287.08 639.19 338.13 630.83 374.58 639.3C411.02 647.77 457.01 641.35 467.79 576.99C478.56 512.64 454.47 471.63 435.67 448.37C416.87 425.11 385.48 355.55 375.81 323.62C366.14 291.69 316.92 233.23 281.56 335.54C275.45 353.24 247.12 411.83 227.53 431.82C207.94 451.81 183.66 481.08 187.74 548.29Z" id="b1t1QndDoG"></path></defs><g><g><g><use xlink:href="#i1L2DlENS" opacity="1" fill="#2c2c2b" fill-opacity="1"></use><g><use xlink:href="#i1L2DlENS" opacity="1" fill-opacity="0" stroke="#000000" stroke-width="1" stroke-opacity="0"></use></g></g><g><use xlink:href="#a4SPKrKYNP" opacity="1" fill="#000000" fill-opacity="0"></use><g><use xlink:href="#a4SPKrKYNP" opacity="1" fill-opacity="0" stroke="#000000" stroke-width="1" stroke-opacity="0"></use></g></g><g><use xlink:href="#d4Vs1DdmH" opacity="1" fill="#2c2c2b" fill-opacity="1"></use><g><use xlink:href="#d4Vs1DdmH" opacity="1" fill-opacity="0" stroke="#000000" stroke-width="1" stroke-opacity="0"></use></g></g><g><use xlink:href="#a1ds6SQYhW" opacity="1" fill="#000000" fill-opacity="0"></use><g><use xlink:href="#a1ds6SQYhW" opacity="1" fill-opacity="0" stroke="#000000" stroke-width="1" stroke-opacity="0"></use></g></g><g><use xlink:href="#a5tJbF374A" opacity="1" fill="#2c2c2b" fill-opacity="1"></use><g><use xlink:href="#a5tJbF374A" opacity="1" fill-opacity="0" stroke="#000000" stroke-width="1" stroke-opacity="0"></use></g></g><g><use xlink:href="#f1boadJVtD" opacity="1" fill="#000000" fill-opacity="0"></use><g><use xlink:href="#f1boadJVtD" opacity="1" fill-opacity="0" stroke="#000000" stroke-width="1" stroke-opacity="0"></use></g></g><g><use xlink:href="#b1RCG7WC2u" opacity="1" fill="#2c2c2b" fill-opacity="1"></use><g><use xlink:href="#b1RCG7WC2u" opacity="1" fill-opacity="0" stroke="#000000" stroke-width="1" stroke-opacity="0"></use></g></g><g><use xlink:href="#b3ExzCzeE" opacity="1" fill="#000000" fill-opacity="0"></use><g><use xlink:href="#b3ExzCzeE" opacity="1" fill-opacity="0" stroke="#000000" stroke-width="1" stroke-opacity="0"></use></g></g><g><use xlink:href="#c5L93abwJq" opacity="1" fill="#2c2c2b" fill-opacity="1"></use><g><use xlink:href="#c5L93abwJq" opacity="1" fill-opacity="0" stroke="#000000" stroke-width="1" stroke-opacity="0"></use></g></g><g><use xlink:href="#b1t1QndDoG" opacity="1" fill="#000000" fill-opacity="0"></use><g><use xlink:href="#b1t1QndDoG" opacity="1" fill-opacity="0" stroke="#000000" stroke-width="1" stroke-opacity="0"></use></g></g></g></g></svg>