<?xml version="1.0" encoding="UTF-8" standalone="no"?>
<!DOCTYPE svg PUBLIC "-//W3C//DTD SVG 1.1//EN" "http://www.w3.org/Graphics/SVG/1.1/DTD/svg11.dtd">
<svg version="1.1" xmlns="http://www.w3.org/2000/svg" xmlns:xlink="http://www.w3.org/1999/xlink" preserveAspectRatio="xMidYMid meet" viewBox="0 0 640 640" width="640" height="640"><defs><path d="M161.37 384.32C161.37 384.32 113.32 471.27 109.58 521.37C162.69 680.32 512.21 663.16 529.49 521.37C532 465.07 477.99 386.99 477.99 386.99C414.67 386.45 224.69 384.85 161.37 384.32Z" id="axjJKgCs"></path><path d="M183.29 428.99C152.78 468.61 98.17 526.38 128.38 568.63C219.63 674.47 480.3 637.78 513.83 569.11C531.95 522.46 446.27 429 446.27 429C393.68 429 235.89 428.99 183.29 428.99Z" id="dMljKarB0"></path><path d="M136.63 278.33C132.46 232.3 148.67 233.66 140.96 208.5C131.29 176.9 119.2 161.05 128.94 138.84C136.72 121.11 153.48 106.16 159.17 87.5C162.75 75.76 151.97 60.98 145.3 48.78C141.1 41.09 139.57 32.2 139.75 24.12C139.98 13.63 143.1 4.49 146.99 1.04C154.82 -5.89 163.68 23.48 174.76 36.43C178.77 41.12 210.88 78.67 214.89 83.36C221.78 91.41 225.79 102.45 231.37 108.09C237.05 113.82 245.44 121.92 254.79 126.07C231.16 156.52 160.27 247.88 136.63 278.33Z" id="bg8dvK2NL"></path><path d="M207.09 114.64C207.15 132.47 175.52 163.6 173.7 181.33C172.97 188.43 185.97 187.88 185.97 187.88C185.77 187.02 184.13 180.16 183.92 179.3C172.71 182.13 158.05 194.62 151.19 211.77C145.1 199.88 150.69 176.03 155.84 149.66C159.7 129.88 196.12 123.4 175.86 65.94C175.86 65.95 207.03 98.2 207.09 114.64Z" id="eBBb24glM"></path><radialGradient id="gradientc76Uvj4IpH" gradientUnits="userSpaceOnUse" cx="179.25" cy="140.94" dx="26.34" dy="-61.89" r="254.01"><stop style="stop-color: #ffccaa;stop-opacity: 1" offset="0%"></stop><stop style="stop-color: #ffaf7a;stop-opacity: 1" offset="100%"></stop></radialGradient><path d="M512.7 278.33C516.88 232.3 500.67 233.66 508.38 208.5C518.05 176.9 530.14 161.05 520.4 138.84C512.62 121.11 495.86 106.16 490.17 87.5C486.59 75.76 497.37 60.98 504.04 48.78C508.24 41.09 509.77 32.2 509.59 24.12C509.35 13.63 506.24 4.49 502.35 1.04C494.52 -5.89 485.65 23.48 474.58 36.43C470.57 41.12 438.46 78.67 434.45 83.36C427.56 91.41 423.55 102.45 417.96 108.09C412.29 113.82 399.67 123.76 390.32 127.91C414.8 157.99 488.23 248.25 512.7 278.33Z" id="f3lfyzFc44"></path><path d="M441.18 114.64C441.11 132.47 466.32 158.8 468.14 176.54C468.87 183.63 464.71 182.68 464.71 182.68C465.78 183.79 474.39 192.71 475.47 193.83C486.68 196.66 485.93 198.75 492.79 215.9C498.88 204.01 497.58 176.03 492.43 149.66C488.57 129.88 452.15 123.4 472.41 65.94C472.41 65.95 441.24 98.2 441.18 114.64Z" id="c44YUa4Ky"></path><radialGradient id="gradientcUv9KKtoA" gradientUnits="userSpaceOnUse" cx="469.02" cy="140.94" dx="621.93" dy="-61.89" r="254.01"><stop style="stop-color: #ffccaa;stop-opacity: 1" offset="0%"></stop><stop style="stop-color: #ffaf7a;stop-opacity: 1" offset="100%"></stop></radialGradient><path d="M324.06 476.23C214.59 476.23 136.31 393.47 136.31 292.3C136.31 191.12 214.59 109.85 324.06 109.85C433.53 109.85 513.82 197.12 513.82 298.29C513.82 399.47 433.53 476.23 324.06 476.23Z" id="a4mduxoDQ1"></path><path d="M324.05 500.58C282.8 500.58 249.37 470.85 249.37 434.18C249.37 397.5 282.8 367.78 324.05 367.78C365.29 367.78 398.73 397.5 398.73 434.18C398.73 470.85 365.29 500.58 324.05 500.58Z" id="b1wJSIRqky"></path><path d="M324.06 476.24C299.62 476.24 279.81 452.82 279.81 423.94C279.81 395.05 299.62 371.63 324.06 371.63C348.5 371.63 368.31 395.05 368.31 423.94C368.31 452.82 348.5 476.24 324.06 476.24Z" id="a29mxKhwUa"></path><path d="M201.62 452.74C216.16 466.69 232.93 475.87 249.37 476.23C324.05 476.23 324.05 392.24 324.05 392.24C324.05 392.24 324.05 476.23 398.73 476.23C485.28 489.18 532.93 308.59 430.97 303.05C398.73 274.56 375.49 212.18 398.73 123.29C398.73 123.29 369.24 109.89 324.05 109.79C278.87 109.69 249.37 123.29 249.37 123.29C271.81 212.18 249.37 268.82 217.1 305.24C131.22 313.33 154.78 407.79 201.62 452.74Z" id="aXcTgBMNN"></path><path d="M249.37 333.01C253.55 306.92 297.48 305.26 324.05 305.26C350.63 305.26 394.55 306.92 398.73 333.01C403.74 364.28 337.5 392.25 324.05 392.25C310.6 392.25 244.36 364.28 249.37 333.01Z" id="c4PwMlISrj"></path><path d="M209.81 265.21C196.39 265.21 185.52 254.4 185.52 241.06C185.52 227.72 196.39 216.91 209.81 216.91C223.23 216.91 234.1 227.72 234.1 241.06C234.1 254.4 223.23 265.21 209.81 265.21Z" id="cP9VZxDli"></path><path d="M245.5 194.56C219.38 178.83 195.82 182.45 168.8 200.66C193.57 189.81 218.88 181.91 245.5 194.56Z" id="aiHIAPccb"></path><path d="M209.8 262.98C197.62 262.98 187.75 253.17 187.75 241.06C187.75 228.95 197.62 219.14 209.8 219.14C221.98 219.14 231.85 228.95 231.85 241.06C231.85 253.17 221.98 262.98 209.8 262.98Z" id="b5Min2ZwO"></path><linearGradient id="gradientb1KotMxZxM" gradientUnits="userSpaceOnUse" x1="209.03" y1="262.96" x2="209.03" y2="236.8"><stop style="stop-color: #803300;stop-opacity: 1" offset="0%"></stop><stop style="stop-color: #803300;stop-opacity: 0" offset="100%"></stop></linearGradient><path d="M209.8 255.19C201.95 255.19 195.59 248.87 195.59 241.07C195.59 233.26 201.95 226.94 209.8 226.94C217.64 226.94 224.01 233.26 224.01 241.07C224.01 248.87 217.64 255.19 209.8 255.19Z" id="aTpVHUWyW"></path><path d="M192.44 239.31C190.32 237.74 191.57 232.51 195.24 227.63C198.9 222.75 203.59 220.07 205.71 221.64C207.83 223.21 206.58 228.44 202.91 233.32C199.25 238.2 194.56 240.88 192.44 239.31Z" id="d7fhKaTtR"></path><path d="M433.83 265.21C420.41 265.21 409.54 254.4 409.54 241.06C409.54 227.72 420.41 216.91 433.83 216.91C447.24 216.91 458.12 227.72 458.12 241.06C458.12 254.4 447.24 265.21 433.83 265.21Z" id="a9Y1AYcRI"></path><path d="M398.82 194.56C424.94 178.83 448.5 182.45 475.51 200.66C450.75 189.81 425.44 181.91 398.82 194.56Z" id="a7ui1xoOL"></path><path d="M433.84 262.98C421.66 262.98 411.78 253.17 411.78 241.06C411.78 228.95 421.66 219.14 433.84 219.14C446.01 219.14 455.89 228.95 455.89 241.06C455.89 253.17 446.01 262.98 433.84 262.98Z" id="an4umyK2u"></path><linearGradient id="gradienta2mDrCFxsY" gradientUnits="userSpaceOnUse" x1="433.07" y1="262.96" x2="433.07" y2="236.8"><stop style="stop-color: #803300;stop-opacity: 1" offset="0%"></stop><stop style="stop-color: #803300;stop-opacity: 0" offset="100%"></stop></linearGradient><path d="M433.83 255.19C425.99 255.19 419.63 248.87 419.63 241.07C419.63 233.26 425.99 226.94 433.83 226.94C441.68 226.94 448.04 233.26 448.04 241.07C448.04 248.87 441.68 255.19 433.83 255.19Z" id="a2WuZIXjd"></path><path d="M416.46 239.31C414.34 237.74 415.59 232.51 419.25 227.63C422.92 222.75 427.6 220.07 429.72 221.64C431.84 223.21 430.59 228.44 426.93 233.32C423.27 238.2 418.58 240.88 416.46 239.31Z" id="c20ek52frs"></path><path d="M161.37 387.35C161.37 387.35 113.32 474.98 109.58 525.48C162.69 685.68 512.21 668.39 529.49 525.48C532 468.74 477.99 390.03 477.99 390.03C414.67 389.5 224.69 387.88 161.37 387.35Z" id="b6QswjaKTb"></path><path d="M183.29 432.37C152.78 472.3 98.17 530.52 128.38 573.11C219.63 679.78 480.3 642.8 513.83 573.6C531.95 526.58 446.27 432.37 446.27 432.37C393.68 432.37 235.89 432.37 183.29 432.37Z" id="a1b3YGZH2a"></path><path d="M136.63 280.53C132.46 234.12 148.67 235.5 140.96 210.14C131.29 178.29 119.2 162.32 128.94 139.93C136.72 122.06 153.48 107 159.17 88.19C162.75 76.36 151.97 61.46 145.3 49.16C141.1 41.41 139.57 32.46 139.75 24.31C139.98 13.74 143.1 4.53 146.99 1.05C154.82 -5.93 163.68 23.67 174.76 36.72C178.77 41.45 210.88 79.29 214.89 84.02C221.78 92.13 225.79 103.26 231.37 108.95C237.05 114.72 245.44 122.88 254.79 127.06C231.16 157.75 160.27 249.83 136.63 280.53Z" id="at6EjKhiJ"></path><path d="M207.09 115.54C207.15 133.51 175.52 164.88 173.7 182.76C172.97 189.91 185.97 189.36 185.97 189.36C185.77 188.49 184.13 181.58 183.92 180.71C172.71 183.57 158.05 196.16 151.19 213.44C145.1 201.45 150.69 177.42 155.84 150.84C159.7 130.9 196.12 124.37 175.86 66.46C175.86 66.47 207.03 98.97 207.09 115.54Z" id="gbOqKHkRx"></path><radialGradient id="gradiente1prFmhow1" gradientUnits="userSpaceOnUse" cx="179.25" cy="142.05" dx="26.34" dy="-62.37" r="255.29"><stop style="stop-color: #ffccaa;stop-opacity: 1" offset="0%"></stop><stop style="stop-color: #ffaf7a;stop-opacity: 1" offset="100%"></stop></radialGradient><path d="M512.7 280.53C516.88 234.12 500.67 235.5 508.38 210.14C518.05 178.29 530.14 162.32 520.4 139.93C512.62 122.06 495.86 107 490.17 88.19C486.59 76.36 497.37 61.46 504.04 49.16C508.24 41.41 509.77 32.46 509.59 24.31C509.35 13.74 506.24 4.53 502.35 1.05C494.52 -5.93 485.65 23.67 474.58 36.72C470.57 41.45 438.46 79.29 434.45 84.02C427.56 92.13 423.55 103.26 417.96 108.95C412.29 114.72 399.67 124.74 390.32 128.91C414.8 159.23 488.23 250.2 512.7 280.53Z" id="b11eG2bmHl"></path><path d="M441.18 115.54C441.11 133.51 466.32 160.05 468.14 177.93C468.87 185.07 464.71 184.12 464.71 184.12C465.78 185.24 474.39 194.23 475.47 195.35C486.68 198.2 485.93 200.32 492.79 217.6C498.88 205.61 497.58 177.42 492.43 150.84C488.57 130.9 452.15 124.38 472.41 66.46C472.41 66.47 441.24 98.97 441.18 115.54Z" id="b376BPdXTr"></path><radialGradient id="gradienta4af3FZUvV" gradientUnits="userSpaceOnUse" cx="469.02" cy="142.05" dx="621.93" dy="-62.37" r="255.29"><stop style="stop-color: #ffccaa;stop-opacity: 1" offset="0%"></stop><stop style="stop-color: #ffaf7a;stop-opacity: 1" offset="100%"></stop></radialGradient><path d="M324.06 479.98C214.59 479.98 136.31 396.57 136.31 294.6C136.31 192.63 214.59 110.71 324.06 110.71C433.53 110.71 513.82 198.67 513.82 300.64C513.82 402.61 433.53 479.98 324.06 479.98Z" id="eMZX1Nkfc"></path><path d="M324.05 504.52C282.8 504.52 249.37 474.56 249.37 437.6C249.37 400.63 282.8 370.67 324.05 370.67C365.29 370.67 398.73 400.63 398.73 437.6C398.73 474.56 365.29 504.52 324.05 504.52Z" id="ePGbPt9aS"></path><path d="M324.06 479.99C299.62 479.99 279.81 456.39 279.81 427.27C279.81 398.16 299.62 374.56 324.06 374.56C348.5 374.56 368.31 398.16 368.31 427.27C368.31 456.39 348.5 479.99 324.06 479.99Z" id="b1H8g7Nq5"></path><path d="M201.62 456.31C216.16 470.37 232.93 479.62 249.37 479.98C324.05 479.98 324.05 395.32 324.05 395.32C324.05 395.32 324.05 479.98 398.73 479.98C485.28 493.03 532.93 311.02 430.97 305.43C398.73 276.72 375.49 213.85 398.73 124.26C398.73 124.26 369.24 110.75 324.05 110.66C278.87 110.56 249.37 124.26 249.37 124.26C271.81 213.85 249.37 270.94 217.1 307.65C131.22 315.79 154.78 411 201.62 456.31Z" id="b2XwbOXzZz"></path><path d="M249.37 335.63C253.55 309.33 297.48 307.66 324.05 307.66C350.63 307.66 394.55 309.33 398.73 335.63C403.74 367.14 337.5 395.34 324.05 395.34C310.6 395.34 244.36 367.14 249.37 335.63Z" id="dv6rYS19"></path><path d="M209.81 267.3C196.39 267.3 185.52 256.4 185.52 242.96C185.52 229.52 196.39 218.62 209.81 218.62C223.23 218.62 234.1 229.52 234.1 242.96C234.1 256.4 223.23 267.3 209.81 267.3Z" id="d1T5LFY3vs"></path><path d="M245.5 196.1C219.38 180.24 195.82 183.88 168.8 202.24C193.57 191.3 218.88 183.34 245.5 196.1Z" id="c5Vemb2gcc"></path><path d="M209.8 265.05C197.62 265.05 187.75 255.16 187.75 242.96C187.75 230.76 197.62 220.86 209.8 220.86C221.98 220.86 231.85 230.76 231.85 242.96C231.85 255.16 221.98 265.05 209.8 265.05Z" id="bIRRNPUQ"></path><linearGradient id="gradientdpER1Gj0t" gradientUnits="userSpaceOnUse" x1="209.03" y1="265.03" x2="209.03" y2="238.66"><stop style="stop-color: #803300;stop-opacity: 1" offset="0%"></stop><stop style="stop-color: #803300;stop-opacity: 0" offset="100%"></stop></linearGradient><path d="M209.8 257.2C201.95 257.2 195.59 250.83 195.59 242.96C195.59 235.1 201.95 228.73 209.8 228.73C217.64 228.73 224.01 235.1 224.01 242.96C224.01 250.83 217.64 257.2 209.8 257.2Z" id="fh0754Oj3"></path><path d="M192.44 241.19C190.32 239.61 191.57 234.34 195.24 229.42C198.9 224.5 203.59 221.8 205.71 223.38C207.83 224.97 206.58 230.24 202.91 235.16C199.25 240.08 194.56 242.78 192.44 241.19Z" id="cwkhREEj7"></path><path d="M433.83 267.3C420.41 267.3 409.54 256.4 409.54 242.96C409.54 229.52 420.41 218.62 433.83 218.62C447.24 218.62 458.12 229.52 458.12 242.96C458.12 256.4 447.24 267.3 433.83 267.3Z" id="c8ddS8GEh"></path><path d="M398.82 196.1C424.94 180.24 448.5 183.88 475.51 202.24C450.75 191.3 425.44 183.34 398.82 196.1Z" id="c71Oato3"></path><path d="M433.84 265.05C421.66 265.05 411.78 255.16 411.78 242.96C411.78 230.76 421.66 220.86 433.84 220.86C446.01 220.86 455.89 230.76 455.89 242.96C455.89 255.16 446.01 265.05 433.84 265.05Z" id="g8EacG7vb"></path><linearGradient id="gradienta7XK17NCIB" gradientUnits="userSpaceOnUse" x1="433.07" y1="265.03" x2="433.07" y2="238.66"><stop style="stop-color: #803300;stop-opacity: 1" offset="0%"></stop><stop style="stop-color: #803300;stop-opacity: 0" offset="100%"></stop></linearGradient><path d="M433.83 257.2C425.99 257.2 419.63 250.83 419.63 242.96C419.63 235.1 425.99 228.73 433.83 228.73C441.68 228.73 448.04 235.1 448.04 242.96C448.04 250.83 441.68 257.2 433.83 257.2Z" id="b4jQauYamQ"></path><path d="M416.46 241.19C414.34 239.61 415.59 234.34 419.25 229.42C422.92 224.5 427.6 221.8 429.72 223.38C431.84 224.97 430.59 230.24 426.93 235.16C423.27 240.08 418.58 242.78 416.46 241.19Z" id="a4mgqXuHR"></path></defs><g><g><g><use xlink:href="#axjJKgCs" opacity="1" fill="#d38d5f" fill-opacity="1"></use><g><use xlink:href="#axjJKgCs" opacity="1" fill-opacity="0" stroke="#000000" stroke-width="1" stroke-opacity="0"></use></g></g><g><use xlink:href="#dMljKarB0" opacity="1" fill="#f4e3d7" fill-opacity="1"></use><g><use xlink:href="#dMljKarB0" opacity="1" fill-opacity="0" stroke="#000000" stroke-width="1" stroke-opacity="0"></use></g></g><g><use xlink:href="#bg8dvK2NL" opacity="1" fill="#d38d5f" fill-opacity="1"></use><g><use xlink:href="#bg8dvK2NL" opacity="1" fill-opacity="0" stroke="#000000" stroke-width="1" stroke-opacity="0"></use></g></g><g><use xlink:href="#eBBb24glM" opacity="1" fill="url(#gradientc76Uvj4IpH)"></use><g><use xlink:href="#eBBb24glM" opacity="1" fill-opacity="0" stroke="#000000" stroke-width="1" stroke-opacity="0"></use></g></g><g><use xlink:href="#f3lfyzFc44" opacity="1" fill="#d38d5f" fill-opacity="1"></use><g><use xlink:href="#f3lfyzFc44" opacity="1" fill-opacity="0" stroke="#000000" stroke-width="1" stroke-opacity="0"></use></g></g><g><use xlink:href="#c44YUa4Ky" opacity="1" fill="url(#gradientcUv9KKtoA)"></use><g><use xlink:href="#c44YUa4Ky" opacity="1" fill-opacity="0" stroke="#000000" stroke-width="1" stroke-opacity="0"></use></g></g><g><use xlink:href="#a4mduxoDQ1" opacity="1" fill="#d38d5f" fill-opacity="1"></use><g><use xlink:href="#a4mduxoDQ1" opacity="1" fill-opacity="0" stroke="#000000" stroke-width="1" stroke-opacity="0"></use></g></g><g><use xlink:href="#b1wJSIRqky" opacity="1" fill="#d38d5f" fill-opacity="1"></use><g><use xlink:href="#b1wJSIRqky" opacity="1" fill-opacity="0" stroke="#000000" stroke-width="1" stroke-opacity="0"></use></g></g><g><use xlink:href="#a29mxKhwUa" opacity="1" fill="#c83737" fill-opacity="1"></use><g><use xlink:href="#a29mxKhwUa" opacity="1" fill-opacity="0" stroke="#000000" stroke-width="1" stroke-opacity="0"></use></g></g><g><use xlink:href="#aXcTgBMNN" opacity="1" fill="#f4e3d7" fill-opacity="1"></use><g><use xlink:href="#aXcTgBMNN" opacity="1" fill-opacity="0" stroke="#000000" stroke-width="1" stroke-opacity="0"></use></g></g><g><use xlink:href="#c4PwMlISrj" opacity="1" fill="#000000" fill-opacity="1"></use><g><use xlink:href="#c4PwMlISrj" opacity="1" fill-opacity="0" stroke="#000000" stroke-width="1" stroke-opacity="0"></use></g></g><g><use xlink:href="#cP9VZxDli" opacity="1" fill="#000000" fill-opacity="1"></use><g><use xlink:href="#cP9VZxDli" opacity="1" fill-opacity="0" stroke="#000000" stroke-width="1" stroke-opacity="0"></use></g></g><g><use xlink:href="#aiHIAPccb" opacity="1" fill="#000000" fill-opacity="1"></use><g><use xlink:href="#aiHIAPccb" opacity="1" fill-opacity="0" stroke="#000000" stroke-width="1" stroke-opacity="0"></use></g></g><g><use xlink:href="#b5Min2ZwO" opacity="1" fill="url(#gradientb1KotMxZxM)"></use><g><use xlink:href="#b5Min2ZwO" opacity="1" fill-opacity="0" stroke="#000000" stroke-width="1" stroke-opacity="0"></use></g></g><g><use xlink:href="#aTpVHUWyW" opacity="1" fill="#000000" fill-opacity="1"></use><g><use xlink:href="#aTpVHUWyW" opacity="1" fill-opacity="0" stroke="#000000" stroke-width="1" stroke-opacity="0"></use></g></g><g><use xlink:href="#d7fhKaTtR" opacity="1" fill="#ffffff" fill-opacity="1"></use><g><use xlink:href="#d7fhKaTtR" opacity="1" fill-opacity="0" stroke="#000000" stroke-width="1" stroke-opacity="0"></use></g></g><g><use xlink:href="#a9Y1AYcRI" opacity="1" fill="#000000" fill-opacity="1"></use><g><use xlink:href="#a9Y1AYcRI" opacity="1" fill-opacity="0" stroke="#000000" stroke-width="1" stroke-opacity="0"></use></g></g><g><use xlink:href="#a7ui1xoOL" opacity="1" fill="#000000" fill-opacity="1"></use><g><use xlink:href="#a7ui1xoOL" opacity="1" fill-opacity="0" stroke="#000000" stroke-width="1" stroke-opacity="0"></use></g></g><g><use xlink:href="#an4umyK2u" opacity="1" fill="url(#gradienta2mDrCFxsY)"></use><g><use xlink:href="#an4umyK2u" opacity="1" fill-opacity="0" stroke="#000000" stroke-width="1" stroke-opacity="0"></use></g></g><g><use xlink:href="#a2WuZIXjd" opacity="1" fill="#000000" fill-opacity="1"></use><g><use xlink:href="#a2WuZIXjd" opacity="1" fill-opacity="0" stroke="#000000" stroke-width="1" stroke-opacity="0"></use></g></g><g><use xlink:href="#c20ek52frs" opacity="1" fill="#ffffff" fill-opacity="1"></use><g><use xlink:href="#c20ek52frs" opacity="1" fill-opacity="0" stroke="#000000" stroke-width="1" stroke-opacity="0"></use></g></g><g><use xlink:href="#b6QswjaKTb" opacity="1" fill="#d38d5f" fill-opacity="1"></use><g><use xlink:href="#b6QswjaKTb" opacity="1" fill-opacity="0" stroke="#000000" stroke-width="1" stroke-opacity="0"></use></g></g><g><use xlink:href="#a1b3YGZH2a" opacity="1" fill="#f4e3d7" fill-opacity="1"></use><g><use xlink:href="#a1b3YGZH2a" opacity="1" fill-opacity="0" stroke="#000000" stroke-width="1" stroke-opacity="0"></use></g></g><g><use xlink:href="#at6EjKhiJ" opacity="1" fill="#d38d5f" fill-opacity="1"></use><g><use xlink:href="#at6EjKhiJ" opacity="1" fill-opacity="0" stroke="#000000" stroke-width="1" stroke-opacity="0"></use></g></g><g><use xlink:href="#gbOqKHkRx" opacity="1" fill="url(#gradiente1prFmhow1)"></use><g><use xlink:href="#gbOqKHkRx" opacity="1" fill-opacity="0" stroke="#000000" stroke-width="1" stroke-opacity="0"></use></g></g><g><use xlink:href="#b11eG2bmHl" opacity="1" fill="#d38d5f" fill-opacity="1"></use><g><use xlink:href="#b11eG2bmHl" opacity="1" fill-opacity="0" stroke="#000000" stroke-width="1" stroke-opacity="0"></use></g></g><g><use xlink:href="#b376BPdXTr" opacity="1" fill="url(#gradienta4af3FZUvV)"></use><g><use xlink:href="#b376BPdXTr" opacity="1" fill-opacity="0" stroke="#000000" stroke-width="1" stroke-opacity="0"></use></g></g><g><use xlink:href="#eMZX1Nkfc" opacity="1" fill="#d38d5f" fill-opacity="1"></use><g><use xlink:href="#eMZX1Nkfc" opacity="1" fill-opacity="0" stroke="#000000" stroke-width="1" stroke-opacity="0"></use></g></g><g><use xlink:href="#ePGbPt9aS" opacity="1" fill="#d38d5f" fill-opacity="1"></use><g><use xlink:href="#ePGbPt9aS" opacity="1" fill-opacity="0" stroke="#000000" stroke-width="1" stroke-opacity="0"></use></g></g><g><use xlink:href="#b1H8g7Nq5" opacity="1" fill="#c83737" fill-opacity="1"></use><g><use xlink:href="#b1H8g7Nq5" opacity="1" fill-opacity="0" stroke="#000000" stroke-width="1" stroke-opacity="0"></use></g></g><g><use xlink:href="#b2XwbOXzZz" opacity="1" fill="#f4e3d7" fill-opacity="1"></use><g><use xlink:href="#b2XwbOXzZz" opacity="1" fill-opacity="0" stroke="#000000" stroke-width="1" stroke-opacity="0"></use></g></g><g><use xlink:href="#dv6rYS19" opacity="1" fill="#000000" fill-opacity="1"></use><g><use xlink:href="#dv6rYS19" opacity="1" fill-opacity="0" stroke="#000000" stroke-width="1" stroke-opacity="0"></use></g></g><g><use xlink:href="#d1T5LFY3vs" opacity="1" fill="#000000" fill-opacity="1"></use><g><use xlink:href="#d1T5LFY3vs" opacity="1" fill-opacity="0" stroke="#000000" stroke-width="1" stroke-opacity="0"></use></g></g><g><use xlink:href="#c5Vemb2gcc" opacity="1" fill="#000000" fill-opacity="1"></use><g><use xlink:href="#c5Vemb2gcc" opacity="1" fill-opacity="0" stroke="#000000" stroke-width="1" stroke-opacity="0"></use></g></g><g><use xlink:href="#bIRRNPUQ" opacity="1" fill="url(#gradientdpER1Gj0t)"></use><g><use xlink:href="#bIRRNPUQ" opacity="1" fill-opacity="0" stroke="#000000" stroke-width="1" stroke-opacity="0"></use></g></g><g><use xlink:href="#fh0754Oj3" opacity="1" fill="#000000" fill-opacity="1"></use><g><use xlink:href="#fh0754Oj3" opacity="1" fill-opacity="0" stroke="#000000" stroke-width="1" stroke-opacity="0"></use></g></g><g><use xlink:href="#cwkhREEj7" opacity="1" fill="#ffffff" fill-opacity="1"></use><g><use xlink:href="#cwkhREEj7" opacity="1" fill-opacity="0" stroke="#000000" stroke-width="1" stroke-opacity="0"></use></g></g><g><use xlink:href="#c8ddS8GEh" opacity="1" fill="#000000" fill-opacity="1"></use><g><use xlink:href="#c8ddS8GEh" opacity="1" fill-opacity="0" stroke="#000000" stroke-width="1" stroke-opacity="0"></use></g></g><g><use xlink:href="#c71Oato3" opacity="1" fill="#000000" fill-opacity="1"></use><g><use xlink:href="#c71Oato3" opacity="1" fill-opacity="0" stroke="#000000" stroke-width="1" stroke-opacity="0"></use></g></g><g><use xlink:href="#g8EacG7vb" opacity="1" fill="url(#gradienta7XK17NCIB)"></use><g><use xlink:href="#g8EacG7vb" opacity="1" fill-opacity="0" stroke="#000000" stroke-width="1" stroke-opacity="0"></use></g></g><g><use xlink:href="#b4jQauYamQ" opacity="1" fill="#000000" fill-opacity="1"></use><g><use xlink:href="#b4jQauYamQ" opacity="1" fill-opacity="0" stroke="#000000" stroke-width="1" stroke-opacity="0"></use></g></g><g><use xlink:href="#a4mgqXuHR" opacity="1" fill="#ffffff" fill-opacity="1"></use><g><use xlink:href="#a4mgqXuHR" opacity="1" fill-opacity="0" stroke="#000000" stroke-width="1" stroke-opacity="0"></use></g></g></g></g></svg>