<?xml version="1.0" encoding="UTF-8" standalone="no"?>
<!DOCTYPE svg PUBLIC "-//W3C//DTD SVG 1.1//EN" "http://www.w3.org/Graphics/SVG/1.1/DTD/svg11.dtd">
<svg version="1.1" xmlns="http://www.w3.org/2000/svg" xmlns:xlink="http://www.w3.org/1999/xlink" preserveAspectRatio="xMidYMid meet" viewBox="0 0 640 640" width="640" height="640"><defs><path d="M447.95 660.01C444.01 659.69 440.82 658.92 435.04 656.75C425.06 653.04 422.46 652.59 410.76 652.34C410.1 652.32 406.85 652.26 400.99 652.14C398.66 650.22 397.37 649.16 397.11 648.95C392.22 644.9 390.15 640.36 389.13 631.35C388.2 623.17 386.93 616.64 386.1 615.81C385.75 615.47 385.01 613.97 384.45 612.49C383.89 611 382.76 608.92 381.92 607.84C379.71 605.01 375.68 595.71 375.05 592.02C374.75 590.27 373.23 586.14 371.68 582.84C369.25 577.73 368.84 576.12 368.88 571.76C368.9 568.97 369.67 563.87 370.59 560.44C372.97 551.56 373.46 545.02 372.34 536.43C371.2 527.58 368.71 522.15 363.61 517.34C361.75 515.6 360.24 513.77 360.24 513.29C360.24 511.98 357.85 508.77 355.62 507.1C352.98 505.11 350.05 501.25 349.38 498.85C348.31 495.02 351.88 489.92 358.37 486.04C360.5 484.77 362.62 483.51 363.07 483.24C363.51 482.97 365.15 482.42 366.68 482.02C368.23 481.62 370.76 480.68 372.3 479.92C373.85 479.16 376.77 478.08 378.78 477.51C388.2 474.85 393.1 467.4 389.58 461.13C387.82 457.99 386.2 456.84 381.06 455.01C378.58 454.13 374.78 452.45 372.61 451.28C367.53 448.52 359.98 446.3 350.51 444.8C335.66 442.45 334.6 442.1 328.63 437.61C322.98 433.37 320.8 430.55 320.8 427.51C320.8 424.3 327.84 421.22 338.11 419.92C339.88 419.7 345.67 417.93 350.98 416C357.02 413.81 362.9 412.14 366.68 411.56C377.66 409.86 382.28 408.79 388.8 406.44C396.15 403.79 402.93 402.82 409.33 403.5C415.12 404.12 417.42 404.82 420.78 407.02C427.47 411.39 439.05 412.94 445.94 410.37C454.13 407.32 446.52 401.73 432.81 400.72C429.85 400.51 425.8 399.73 423.81 399C415.06 395.78 412.87 395.55 394.56 395.88C378.72 396.16 376.94 396.3 368.91 397.99C364.17 398.98 359.95 399.96 359.54 400.14C359.14 400.33 354.88 401.08 350.07 401.82C341.92 403.08 339.29 403.17 311.15 403.18C309.14 403.18 299.07 403.18 280.96 403.19C278.31 404.4 276.83 405.08 276.54 405.21C274.11 406.33 270.93 408.01 269.47 408.95C263.3 412.97 254.89 413.95 230.8 413.48C212.17 413.12 205.49 412.39 197.27 409.82C186.68 406.5 181.58 408.46 181.58 415.87C181.58 416.1 181.58 417.26 181.58 419.34C184.63 421.5 186.32 422.7 186.66 422.94C192.51 427.1 194.01 428.7 194.75 431.68C195.26 433.73 197.3 436.32 202.5 441.51C203.81 442.83 206 446.44 207.36 449.54C210.16 455.94 210.75 456.87 213.86 459.78C217.95 463.59 219.45 467.18 221.44 477.94C223.43 488.67 223.49 488.86 227.05 496.61C228.27 499.24 229.75 503.29 230.35 505.59C231.44 509.73 233.09 544.64 233.18 564.88C233.21 570.15 233.57 576.34 233.98 578.64C234.4 580.94 234.78 586.73 234.83 591.52C234.92 599.63 234.79 600.44 232.87 603.6C230.66 607.25 228.94 608.29 225.15 608.29C221.13 608.29 218.23 605.88 215.49 600.26C213.47 596.08 213.05 594.33 213.04 589.87C213.04 586.92 212.68 582.78 212.25 580.68C211.82 578.57 211.24 574.02 210.96 570.56C210.69 567.1 209.93 560.77 209.28 556.49C207.23 543.15 205.81 528.93 204.91 513.08C203.82 493.57 202.86 483.95 201.7 480.73C201.18 479.32 199.29 476.39 197.49 474.21C192.67 468.4 191.36 466.25 189.99 461.81C188.59 457.34 185.73 452.78 182.3 449.53C181.04 448.34 178.74 445.14 177.21 442.41C175.66 439.7 173.89 437.03 173.25 436.5C172.63 435.96 171.31 434.34 170.32 432.89C169.34 431.43 167.18 428.74 165.51 426.89C162.36 423.42 159.49 417.71 158.55 413.07C158.25 411.59 156.76 408.08 155.23 405.28C152.64 400.53 152.41 399.55 151.72 390.31C150.34 371.86 149.73 368.16 147.35 363.76C146.13 361.5 144.1 358.82 142.85 357.79C141.58 356.76 139.99 354.43 139.31 352.61C137.38 347.43 134.91 343.82 130.39 339.6C125.68 335.2 123.34 330.03 121.89 320.85C120.98 315.15 121.54 300.27 122.79 296.6C123.82 293.56 123.89 273.03 122.88 268.71C122.47 266.92 121.66 260.87 121.09 255.27C118.48 229.67 121.23 214.79 129.98 207.12C132.09 205.28 134.48 202.97 135.29 201.98C136.11 200.99 138.64 198.56 140.9 196.58C145.43 192.65 148.2 189.6 150.99 185.5C152 184.02 154.77 180.83 157.14 178.4C159.52 175.97 161.46 173.65 161.46 173.25C161.46 172.85 162.85 171.07 164.56 169.29C167.43 166.3 175.86 153.97 177.09 150.98C177.38 150.26 179.21 148.72 181.14 147.53C186.37 144.35 198.86 130.79 201.23 125.74C201.79 124.53 202.95 120.16 203.78 116.04C205.13 109.37 205.72 107.95 209.25 102.87C211.42 99.74 214.57 95.15 216.23 92.69C218.63 89.14 221.26 86.67 228.79 80.95C238.89 73.28 241.25 70.57 244.4 63.04C245.37 60.74 247.63 56.29 249.42 53.16C252.05 48.59 252.78 46.47 253.2 42.36C253.64 37.9 254.04 36.88 256.32 34.42C261.41 28.9 265.1 27.4 271.4 28.28C274.61 28.73 280.88 32.97 282.98 36.1C283.64 37.08 284.53 38.08 284.95 38.3C285.38 38.53 285.99 40.82 286.32 43.39C288.24 58.7 289.37 60.5 299.48 64.21C307.52 67.16 310.95 67.26 322.37 64.83C329.93 63.22 331.14 62.77 334.25 60.35C336.16 58.87 338.29 56.45 338.99 54.96C339.69 53.48 341.49 50.38 342.98 48.07C346.75 42.28 348.74 37.52 349.74 31.94C351.14 24.24 353.78 22.05 361.67 22.03C367.21 22.02 371.21 23.56 374.52 26.99C377.13 29.7 378.22 32.53 380.71 43.02C382.57 50.87 387.45 56.55 393.86 58.32C395.95 58.89 398.56 59.81 399.67 60.36C400.78 60.91 403.73 62.06 406.25 62.9C413.31 65.27 417.98 69.41 424.71 79.21C427.87 83.82 430.78 87.9 431.17 88.26C432.15 89.19 434.77 98.74 435.42 103.76C436.22 109.96 438.5 115.54 441.7 119.14C443.27 120.9 445.12 123.33 445.8 124.56C447.73 127.99 453.84 132.49 458.22 133.71C465.22 135.64 474.46 140.6 481.85 146.37C486.05 149.66 486.82 151.05 489.06 159.44C489.93 162.72 491.24 166.08 491.96 166.9C493.4 168.53 497.06 171.46 508.46 180.12C514.39 184.63 516.66 186.87 519.37 190.9C521.24 193.7 523.72 196.8 524.87 197.79C526.03 198.77 527.42 200.26 527.97 201.08C529.22 202.94 531.35 208.86 532.05 212.46C532.71 215.75 537.22 227.47 538.19 228.39C538.58 228.75 539.3 231.86 539.78 235.28C540.75 242.07 539.82 249.15 536.51 260.06C535.6 263.03 534.14 270.17 533.27 275.93C532.38 281.7 531.32 287.63 530.89 289.11C530.47 290.59 529.9 292.88 529.61 294.2C529.32 295.51 528.81 296.86 528.46 297.19C528.12 297.52 527.19 299.27 526.4 301.08C525.61 302.89 523.96 305.86 522.74 307.67C521.52 309.48 520.1 312.18 519.6 313.66C519.09 315.14 518.18 317.16 517.58 318.15C516.98 319.14 516.22 321.03 515.9 322.34C515.26 324.91 510.1 335.64 508.1 338.55C504.79 343.36 504.15 361.05 506.78 374.57C508.78 384.86 508.3 390.77 504.32 404.39C502.98 409 501.5 414.1 501.06 415.71C500.6 417.33 498.79 421.04 497.02 423.95C494.44 428.22 493.83 429.93 493.83 432.83C493.83 434.81 493.26 439.19 492.57 442.57C490.02 455.06 489.85 472.93 492.15 485.98C492.6 488.53 493.35 495.47 493.83 501.4C494.64 511.7 496.32 523.19 497.91 529.47C499.04 533.96 498.78 551.63 497.5 557.09C496.87 559.72 495.94 565.12 495.43 569.07C494.92 573.02 493.98 578.01 493.35 580.14C492.71 582.29 491.84 588.38 491.42 593.68C490.6 603.99 488.64 616.62 487.47 619.07C486.27 621.55 482.48 634.43 479.7 645.42C477.97 652.27 475.62 657.52 473.56 659.18C469.88 662.12 464.61 662.76 457.21 661.22C454.99 660.78 450.83 660.27 447.95 660.01ZM236.38 375.31C238.41 374.06 242.52 372.18 245.51 371.12C249.93 369.57 253.03 367.69 261.94 361.15C275.33 351.33 277.21 350.48 285.48 350.58C293.87 350.68 299.98 352.08 302.72 354.54C305.4 356.93 309.72 358.98 313.94 359.84C315.7 360.2 318.6 361.26 320.38 362.2C322.16 363.13 326.47 364.63 329.95 365.51C335.75 366.98 337.04 367.1 345.28 366.82C356.02 366.47 358.71 365.68 363.42 361.53C370.71 355.09 370.9 352.61 364.76 343.56C362.4 340.08 359.82 335.77 359.04 333.98C358.25 332.19 356.69 329.25 355.55 327.44C352.78 323.01 352.09 313.28 354.18 307.93C354.94 305.98 355.86 304.11 356.22 303.78C356.59 303.45 357.85 301.3 359.04 298.99C360.72 295.74 361.22 293.72 361.24 290.01C361.3 284.66 360.43 281.83 357.07 276.37C355.8 274.31 354.51 271.7 354.18 270.56C352.96 266.25 348.83 260.97 344.62 258.31C338.28 254.32 335.75 253.55 328.85 253.52C321.07 253.48 313.97 255.27 306.15 259.21C302.93 260.83 300.01 262.16 299.65 262.16C298.74 262.16 282.98 268 281.61 268.85C280.99 269.23 279.36 271.38 277.98 273.64C276.6 275.89 275.21 277.73 274.88 277.73C274.3 277.73 273.11 281.16 272.09 285.81C271.24 289.71 271.6 300.82 272.84 308.95C274.45 319.45 273.69 323.54 268.78 330.66C264.2 337.31 259.75 341.36 255.33 342.89C253.28 343.6 248.42 344.32 242.74 344.75C237.65 345.14 232.15 345.68 230.53 345.95C223.99 347.05 200.11 362.71 197.27 367.76C194.61 372.51 196.7 378.14 201.82 379.98C206.42 381.62 215.12 382.2 221.17 381.27C226.1 380.51 231.13 378.54 236.38 375.31ZM442.84 362.97C437.7 357.85 437.5 357.41 437.66 351.59C437.86 344.4 436 341.84 430.57 341.82C427.26 341.8 422.49 343.81 416.63 347.67C410.46 351.74 408.05 355.43 407.32 361.87C406.69 367.4 407.66 369.76 411.73 372.65C414.17 374.38 414.54 374.45 422.05 374.5C426.34 374.52 430.75 374.84 431.85 375.21C432.96 375.57 435.27 375.88 436.98 375.9C439.56 375.94 440.63 375.54 443.22 373.61C447.68 370.29 447.59 367.72 442.84 362.97ZM177.03 333.05C173.98 328.37 170.88 326.84 164.48 326.84C160.13 326.84 159.45 327.02 157.03 328.81C153.72 331.28 152.63 335.31 154.35 338.68C155.82 341.54 168.65 349.58 171.77 349.59C172.34 349.59 173.83 349.2 175.07 348.72C180.09 346.79 181.05 339.21 177.03 333.05ZM210.41 278.89C214.34 273 214.58 272.38 214.58 268.05C214.57 264.78 214.11 262.65 212.95 260.63C208.88 253.57 205.02 237.15 204.97 226.66C204.91 217.37 203.18 211.7 199.47 208.74C195.54 205.6 185.92 205.38 176.97 208.25C173.9 209.23 172.05 210.47 168.6 213.83C166.15 216.21 163.41 219.36 162.5 220.84C157.51 228.93 156.56 231.02 155.41 236.6C154.72 239.96 153.8 244.16 153.38 245.94C151.54 253.72 153.06 276.14 155.79 281.48C158.73 287.21 161.86 289.18 172.33 291.88C176.58 292.98 192.7 292.5 196.47 291.17C201.57 289.36 206.07 285.4 210.41 278.89ZM494.94 268.23C496.88 266.04 498.71 263.18 499 261.86C499.53 259.46 502.01 255.41 506.28 249.95C508.83 246.69 508.93 245.76 507.66 235.75C507.04 230.74 506.31 228.47 504.23 224.97C501.73 220.75 498.65 213.24 498.65 211.36C498.65 210.2 495.03 206.7 492.64 205.53C490.72 204.59 483.13 203.61 473.6 203.08C468.95 202.82 467.71 202.99 463.95 204.39C457.31 206.86 454.75 208.54 451.9 212.3C450.47 214.2 447.92 216.88 446.24 218.26C443.1 220.84 439.68 225.84 437.14 231.62C433.19 240.55 431.48 244.08 430.11 246.14C428.85 248.01 426.4 256.5 424.83 264.39C424.36 266.73 427.19 271.4 429.86 272.7C434.63 275.03 445.67 277.48 460.43 279.5C465.13 280.14 473.57 279.51 477.73 278.2C485.34 275.8 491.26 272.38 494.94 268.23ZM399.92 174.57C404.34 167.61 405.56 162.62 407.5 143.59C407.99 138.78 406.36 113.18 405.19 107.06C403.44 97.98 400.26 92.37 395.46 89.9C392.46 88.35 391.53 88.2 385.24 88.2C378.85 88.2 378 88.34 374.31 90.08C372.1 91.13 368.53 92.41 366.37 92.95C361.25 94.21 359.95 94.75 354.2 97.95C347.98 101.4 344.67 104.07 342.65 107.22C341.13 109.62 341.04 111.23 340.78 137.9C340.76 139.78 340.68 149.16 340.52 166.05C341.89 168.38 342.66 169.68 342.81 169.94C346.1 175.53 348.32 177.46 352.78 178.61C354.88 179.16 358.24 180.23 360.24 180.99C362.22 181.76 365.85 182.68 368.28 183.04C370.71 183.4 373.43 183.81 374.32 183.93C377.41 184.39 379.23 184.31 383.31 183.52C388.44 182.53 398.21 177.26 399.92 174.57ZM279.2 171.95C280.84 170.26 283.11 168.42 284.26 167.86C285.48 167.27 287.71 164.72 289.69 161.66C292.93 156.63 293.04 156.28 292.95 150.78C292.9 147.65 292.82 139.4 292.76 132.44C292.64 116.62 291.85 112.31 288.05 106.47C281.91 97.06 277.49 94.64 265.35 94.06C259.61 93.79 257.19 93.95 252.71 94.93C249.66 95.6 246.13 96.33 244.87 96.54C243.61 96.75 241.69 97.37 240.6 97.9C238.64 98.85 235.5 102.71 235.49 104.19C235.49 104.61 234.95 105.73 234.3 106.66C233.64 107.59 232.2 111.03 231.08 114.32C228.91 120.72 228.56 126.33 229.85 133.75C230.4 136.93 230.3 139.02 229.43 142.14C227.1 150.42 228.35 158.41 233.53 168.14C234.14 169.3 234.88 171.32 235.17 172.63C236.29 177.74 239.83 180.11 249.11 181.95C256.15 183.35 262.44 183.37 266.51 181.99C269.7 180.91 273.26 178.09 279.2 171.95Z" id="c3A7keOFo6"></path></defs><g><g><g><use xlink:href="#c3A7keOFo6" opacity="1" fill="#000000" fill-opacity="1"></use><g><use xlink:href="#c3A7keOFo6" opacity="1" fill-opacity="0" stroke="#000000" stroke-width="1" stroke-opacity="0"></use></g></g></g></g></svg>